<mxfile host="app.diagrams.net" modified="2023-04-09T20:03:08.995Z" agent="Mozilla/5.0 (Windows NT 10.0; Win64; x64) AppleWebKit/537.36 (KHTML, like Gecko) Chrome/111.0.0.0 Safari/537.36" etag="R2YTgJBn0a5d0o0EpBsk" version="21.1.5" type="device">
  <diagram name="Page-1" id="wLlETjZB91L681AE09lI">
    <mxGraphModel dx="1750" dy="805" grid="1" gridSize="10" guides="1" tooltips="1" connect="1" arrows="1" fold="1" page="1" pageScale="1" pageWidth="850" pageHeight="1100" math="0" shadow="0">
      <root>
        <mxCell id="0" />
        <mxCell id="1" parent="0" />
        <mxCell id="shjvh6Np8BPt_bsksED1-33" value="" style="whiteSpace=wrap;html=1;aspect=fixed;" vertex="1" parent="1">
          <mxGeometry x="120" y="30" width="620" height="620" as="geometry" />
        </mxCell>
        <mxCell id="shjvh6Np8BPt_bsksED1-3" value="" style="edgeStyle=orthogonalEdgeStyle;rounded=0;orthogonalLoop=1;jettySize=auto;html=1;" edge="1" parent="1" source="shjvh6Np8BPt_bsksED1-1" target="shjvh6Np8BPt_bsksED1-2">
          <mxGeometry relative="1" as="geometry" />
        </mxCell>
        <mxCell id="shjvh6Np8BPt_bsksED1-1" value="Start" style="ellipse;whiteSpace=wrap;html=1;aspect=fixed;fillColor=#d5e8d4;strokeColor=#82b366;" vertex="1" parent="1">
          <mxGeometry x="175" y="126" width="80" height="80" as="geometry" />
        </mxCell>
        <mxCell id="shjvh6Np8BPt_bsksED1-9" value="" style="edgeStyle=orthogonalEdgeStyle;rounded=0;orthogonalLoop=1;jettySize=auto;html=1;" edge="1" parent="1" source="shjvh6Np8BPt_bsksED1-2" target="shjvh6Np8BPt_bsksED1-8">
          <mxGeometry relative="1" as="geometry">
            <mxPoint x="375.0000000000002" y="246" as="targetPoint" />
          </mxGeometry>
        </mxCell>
        <mxCell id="shjvh6Np8BPt_bsksED1-2" value="Title Screen" style="rounded=0;whiteSpace=wrap;html=1;fillColor=#fff2cc;strokeColor=#d6b656;" vertex="1" parent="1">
          <mxGeometry x="315" y="136" width="120" height="60" as="geometry" />
        </mxCell>
        <mxCell id="shjvh6Np8BPt_bsksED1-13" value="" style="edgeStyle=orthogonalEdgeStyle;rounded=0;orthogonalLoop=1;jettySize=auto;html=1;entryX=0.5;entryY=0;entryDx=0;entryDy=0;" edge="1" parent="1" source="shjvh6Np8BPt_bsksED1-8" target="shjvh6Np8BPt_bsksED1-14">
          <mxGeometry relative="1" as="geometry">
            <mxPoint x="375.0000000000002" y="376" as="targetPoint" />
          </mxGeometry>
        </mxCell>
        <mxCell id="shjvh6Np8BPt_bsksED1-28" value="Yes" style="edgeStyle=orthogonalEdgeStyle;rounded=0;orthogonalLoop=1;jettySize=auto;html=1;" edge="1" parent="1" source="shjvh6Np8BPt_bsksED1-8" target="shjvh6Np8BPt_bsksED1-14">
          <mxGeometry relative="1" as="geometry" />
        </mxCell>
        <mxCell id="shjvh6Np8BPt_bsksED1-29" value="No" style="edgeStyle=orthogonalEdgeStyle;rounded=0;orthogonalLoop=1;jettySize=auto;html=1;entryX=0.5;entryY=1;entryDx=0;entryDy=0;" edge="1" parent="1" source="shjvh6Np8BPt_bsksED1-8" target="shjvh6Np8BPt_bsksED1-10">
          <mxGeometry relative="1" as="geometry" />
        </mxCell>
        <mxCell id="shjvh6Np8BPt_bsksED1-8" value="Players &lt;br&gt;alive?" style="rhombus;whiteSpace=wrap;html=1;fillColor=#fff2cc;strokeColor=#d6b656;rounded=0;" vertex="1" parent="1">
          <mxGeometry x="335" y="236" width="80" height="80" as="geometry" />
        </mxCell>
        <mxCell id="shjvh6Np8BPt_bsksED1-10" value="End game" style="whiteSpace=wrap;html=1;fillColor=#f8cecc;strokeColor=#b85450;rounded=0;" vertex="1" parent="1">
          <mxGeometry x="555" y="136" width="120" height="60" as="geometry" />
        </mxCell>
        <mxCell id="shjvh6Np8BPt_bsksED1-21" value="Yes" style="edgeStyle=orthogonalEdgeStyle;rounded=0;orthogonalLoop=1;jettySize=auto;html=1;" edge="1" parent="1" source="shjvh6Np8BPt_bsksED1-14" target="shjvh6Np8BPt_bsksED1-20">
          <mxGeometry relative="1" as="geometry" />
        </mxCell>
        <mxCell id="shjvh6Np8BPt_bsksED1-23" value="No" style="edgeStyle=orthogonalEdgeStyle;rounded=0;orthogonalLoop=1;jettySize=auto;html=1;" edge="1" parent="1" source="shjvh6Np8BPt_bsksED1-14" target="shjvh6Np8BPt_bsksED1-22">
          <mxGeometry relative="1" as="geometry" />
        </mxCell>
        <mxCell id="shjvh6Np8BPt_bsksED1-14" value="Special round?" style="rhombus;whiteSpace=wrap;html=1;fillColor=#fff2cc;strokeColor=#d6b656;rounded=0;" vertex="1" parent="1">
          <mxGeometry x="335" y="376" width="80" height="80" as="geometry" />
        </mxCell>
        <mxCell id="shjvh6Np8BPt_bsksED1-27" style="edgeStyle=orthogonalEdgeStyle;rounded=0;orthogonalLoop=1;jettySize=auto;html=1;entryX=1;entryY=0.5;entryDx=0;entryDy=0;" edge="1" parent="1" source="shjvh6Np8BPt_bsksED1-20" target="shjvh6Np8BPt_bsksED1-22">
          <mxGeometry relative="1" as="geometry">
            <mxPoint x="375.0000000000002" y="496" as="targetPoint" />
            <Array as="points">
              <mxPoint x="535" y="566" />
            </Array>
          </mxGeometry>
        </mxCell>
        <mxCell id="shjvh6Np8BPt_bsksED1-20" value="Potion round" style="rounded=0;whiteSpace=wrap;html=1;fillColor=#fff2cc;strokeColor=#d6b656;" vertex="1" parent="1">
          <mxGeometry x="475" y="386" width="120" height="60" as="geometry" />
        </mxCell>
        <mxCell id="shjvh6Np8BPt_bsksED1-26" style="edgeStyle=orthogonalEdgeStyle;rounded=0;orthogonalLoop=1;jettySize=auto;html=1;exitX=1;exitY=0.5;exitDx=0;exitDy=0;entryX=0;entryY=0.5;entryDx=0;entryDy=0;" edge="1" parent="1" source="shjvh6Np8BPt_bsksED1-22" target="shjvh6Np8BPt_bsksED1-8">
          <mxGeometry relative="1" as="geometry">
            <mxPoint x="325" y="276" as="targetPoint" />
            <Array as="points">
              <mxPoint x="185" y="566" />
              <mxPoint x="185" y="276" />
            </Array>
          </mxGeometry>
        </mxCell>
        <mxCell id="shjvh6Np8BPt_bsksED1-22" value="Normal Round" style="rounded=0;whiteSpace=wrap;html=1;fillColor=#fff2cc;strokeColor=#d6b656;" vertex="1" parent="1">
          <mxGeometry x="315" y="536" width="120" height="60" as="geometry" />
        </mxCell>
        <mxCell id="shjvh6Np8BPt_bsksED1-34" value="&lt;font face=&quot;Verdana&quot; style=&quot;font-size: 20px;&quot;&gt;&lt;b&gt;HERO x ENEMY&amp;nbsp;&lt;br&gt;Flow Chart&lt;/b&gt;&lt;/font&gt;" style="text;html=1;align=center;verticalAlign=middle;resizable=0;points=[];autosize=1;strokeColor=none;fillColor=none;strokeWidth=3;" vertex="1" parent="1">
          <mxGeometry x="330" y="40" width="200" height="60" as="geometry" />
        </mxCell>
      </root>
    </mxGraphModel>
  </diagram>
</mxfile>
